<svg xmlns="http://www.w3.org/2000/svg" version="1.1" xmlns:xlink="http://www.w3.org/1999/xlink" xmlns:svgjs="http://svgjs.dev/svgjs" width="1000" height="1125" viewBox="0 0 1000 1125"><g transform="matrix(1,0,0,1,0,0)"><svg viewBox="0 0 320 360" data-background-color="#ffffff" preserveAspectRatio="xMidYMid meet" height="1125" width="1000" xmlns="http://www.w3.org/2000/svg" xmlns:xlink="http://www.w3.org/1999/xlink"><g id="tight-bounds" transform="matrix(1,0,0,1,0,0)"><svg viewBox="0 0 320 360" height="360" width="320"><g><svg></svg></g><g><svg viewBox="0 0 320 360" height="360" width="320"><g><path xmlns="http://www.w3.org/2000/svg" d="M320 141.95l-19.957-19.957v-28.224l-53.812-53.812h-28.223l-19.958-19.957h-76.1l-19.957 19.957h-28.224l-53.812 53.812v28.224l-19.957 19.957v76.104l19.957 19.958v28.223l53.816 53.808h28.224l19.957 19.957h76.104l19.958-19.957h28.223l53.812-53.812v-28.224l19.949-19.957zM244.374 44.437l51.189 51.189v21.887l-73.076-73.076zM295.563 123.849v112.306l-79.408 79.408h-112.306l-79.412-79.412v-112.302l79.412-79.412h112.306zM123.807 24.48h72.39l15.478 15.477h-103.346zM24.437 95.626l51.189-51.189h21.887l-73.076 73.076zM4.484 216.197v-72.394l15.477-15.478v103.342zM75.626 315.563l-51.189-51.189v-21.887l73.076 73.076zM196.197 335.52h-72.39l-15.478-15.477h103.342zM295.563 264.374l-51.189 51.189h-21.887l73.076-73.076zM315.52 216.197l-15.477 15.478v-103.346l15.477 15.478z" fill="#ca3433" fill-rule="nonzero" stroke="none" stroke-width="1" stroke-linecap="butt" stroke-linejoin="miter" stroke-miterlimit="10" stroke-dasharray="" stroke-dashoffset="0" font-family="none" font-weight="none" font-size="none" text-anchor="none" style="mix-blend-mode: normal" data-fill-palette-color="tertiary"></path></g><g transform="matrix(1,0,0,1,56,119.41914191419141)"><svg viewBox="0 0 208 121.16171617161717" height="121.16171617161717" width="208"><g><svg viewBox="0 0 208 121.16171617161717" height="121.16171617161717" width="208"><g><svg viewBox="0 0 208 121.16171617161717" height="121.16171617161717" width="208"><g><svg viewBox="0 0 208 121.16171617161717" height="121.16171617161717" width="208"><g id="textblocktransform"><svg viewBox="0 0 208 121.16171617161717" height="121.16171617161717" width="208" id="textblock"><g><svg viewBox="0 0 208 121.16171617161717" height="121.16171617161717" width="208"><g transform="matrix(1,0,0,1,0,0)"><svg width="208" viewBox="4.599999904632568 -34.79999923706055 60.599998474121094 35.29999923706055" height="121.16171617161717" data-palette-color="#ca3433"><path d="M16.5-34.3Q20.8-34.3 24-32.43 27.2-30.55 28.95-27.08 30.7-23.6 30.7-18.9L30.7-18.9 30.7-15.4Q30.7-10.7 28.95-7.23 27.2-3.75 24-1.88 20.8 0 16.5 0L16.5 0 4.6 0 4.6-34.3 16.5-34.3ZM16.5-29.85L9.5-29.85 9.5-4.45 16.5-4.45Q20.95-4.45 23.38-7.23 25.8-10 25.8-15.4L25.8-15.4 25.8-18.9Q25.8-24.2 23.43-27.03 21.05-29.85 16.5-29.85L16.5-29.85ZM51-34.8Q55.25-34.8 58.45-32.95 61.65-31.1 63.42-27.63 65.2-24.15 65.2-19.4L65.2-19.4 65.2-14.9Q65.2-10.15 63.42-6.68 61.65-3.2 58.45-1.35 55.25 0.5 51 0.5L51 0.5Q46.75 0.5 43.55-1.35 40.35-3.2 38.57-6.68 36.8-10.15 36.8-14.9L36.8-14.9 36.8-19.4Q36.8-24.15 38.57-27.63 40.35-31.1 43.55-32.95 46.75-34.8 51-34.8L51-34.8ZM51-30.35Q46.6-30.35 44.15-27.55 41.7-24.75 41.7-19.4L41.7-19.4 41.7-14.9Q41.7-9.55 44.07-6.75 46.45-3.95 51-3.95L51-3.95Q55.4-3.95 57.85-6.73 60.3-9.5 60.3-14.9L60.3-14.9 60.3-19.4Q60.3-24.75 57.92-27.55 55.55-30.35 51-30.35L51-30.35Z" opacity="1" transform="matrix(1,0,0,1,0,0)" fill="#ca3433" class="undefined-text-0" data-fill-palette-color="primary" id="text-0"></path></svg></g></svg></g></svg></g></svg></g><g></g></svg></g></svg></g></svg></g></svg></g><defs></defs></svg><rect width="320" height="360" fill="none" stroke="none" visibility="hidden"></rect></g></svg></g></svg>